<svg xmlns="http://www.w3.org/2000/svg" aria-hidden="true"><defs><symbol id="icon-calendar" viewBox="0 0 32 32"><path d="M6 29.333c-.533 0-1-.2-1.4-.6s-.6-.867-.6-1.4V6.666c0-.533.2-1 .6-1.4s.867-.6 1.4-.6h2.167v-2h2.167v2h11.333v-2h2.167v2h2.167c.533 0 1 .2 1.4.6s.6.867.6 1.4v20.667c0 .533-.2 1-.6 1.4s-.867.6-1.4.6h-20zm0-2h20V13H6v14.333zM6 11h20V6.667H6V11zm0 0zm10 7.667c-.378 0-.694-.128-.95-.383s-.383-.572-.383-.95.128-.694.383-.95.572-.383.95-.383.694.128.95.383.383.572.383.95-.128.694-.383.95-.572.383-.95.383zm-5.333 0c-.378 0-.694-.128-.95-.383s-.383-.572-.383-.95.128-.694.383-.95.572-.383.95-.383.694.128.95.383.383.572.383.95-.128.694-.383.95-.572.383-.95.383zm10.666 0c-.378 0-.694-.128-.95-.383s-.383-.572-.383-.95.128-.694.383-.95.572-.383.95-.383.694.128.95.383.383.572.383.95-.128.694-.383.95-.572.383-.95.383zM16 24c-.378 0-.694-.128-.95-.383s-.383-.572-.383-.95.128-.694.383-.95.572-.383.95-.383.694.128.95.383.383.572.383.95-.128.694-.383.95S16.378 24 16 24zm-5.333 0c-.378 0-.694-.128-.95-.383s-.383-.572-.383-.95.128-.694.383-.95.572-.383.95-.383.694.128.95.383.383.572.383.95-.128.694-.383.95-.572.383-.95.383zm10.666 0c-.378 0-.694-.128-.95-.383s-.383-.572-.383-.95.128-.694.383-.95.572-.383.95-.383.694.128.95.383.383.572.383.95-.128.694-.383.95-.572.383-.95.383z"/></symbol><symbol id="icon-checked" viewBox="0 0 32 32"><path fill="#4d1299" d="M32 16c0 8.837-7.163 16-16 16S0 24.837 0 16 7.163 0 16 0s16 7.163 16 16z"/><path fill="var(--color2, #fff)" d="M14.393 21.942l-5.256-5.447 1.84-1.906 3.416 3.54 8.672-8.987 1.84 1.906-10.512 10.894z"/></symbol><symbol id="icon-clock" viewBox="0 0 32 32"><path d="M20.9 22.433l1.5-1.5-5.3-5.333V8.9h-2v7.5l5.8 6.033zm-4.9 6.9c-1.822 0-3.544-.35-5.167-1.05s-3.039-1.656-4.25-2.867c-1.211-1.211-2.167-2.628-2.867-4.25s-1.05-3.344-1.05-5.167c0-1.822.35-3.544 1.05-5.167s1.656-3.039 2.867-4.25c1.211-1.211 2.628-2.167 4.25-2.867s3.344-1.05 5.167-1.05c1.822 0 3.544.35 5.167 1.05s3.039 1.656 4.25 2.867c1.211 1.211 2.167 2.628 2.867 4.25s1.05 3.344 1.05 5.167c0 1.822-.35 3.544-1.05 5.167s-1.656 3.039-2.867 4.25c-1.211 1.211-2.628 2.167-4.25 2.867s-3.344 1.05-5.167 1.05zm0-2c3.111 0 5.778-1.111 8-3.333s3.333-4.889 3.333-8c0-3.111-1.111-5.778-3.333-8s-4.889-3.333-8-3.333c-3.111 0-5.778 1.111-8 3.333s-3.333 4.889-3.333 8c0 3.111 1.111 5.778 3.333 8s4.889 3.333 8 3.333z"/></symbol><symbol id="icon-facebook" viewBox="0 0 32 32"><path d="M17.54 26.667V15.999h2.761l.366-3.676H17.54l.005-1.84c0-.959.085-1.473 1.377-1.473h1.726V5.333h-2.762c-3.317 0-4.485 1.783-4.485 4.782v2.207h-2.068v3.676h2.068v10.668h4.139z"/></symbol><symbol id="icon-instagram" viewBox="0 0 32 32"><path d="M16 6.667c-2.535 0-2.852.011-3.848.056-.994.045-1.673.203-2.266.434a4.57 4.57 0 00-1.653 1.076 4.562 4.562 0 00-1.076 1.653c-.23.594-.388 1.273-.434 2.267-.045.995-.056 1.312-.056 3.847s.011 2.852.056 3.848c.045.994.203 1.673.434 2.266a4.57 4.57 0 001.076 1.653c.466.475 1.03.842 1.653 1.076.594.23 1.272.388 2.266.434.996.045 1.313.056 3.848.056s2.852-.011 3.848-.056c.994-.045 1.672-.204 2.266-.434a4.57 4.57 0 001.653-1.076 4.562 4.562 0 001.076-1.653c.23-.594.388-1.272.434-2.266.045-.996.056-1.313.056-3.848s-.011-2.852-.056-3.848c-.045-.994-.203-1.672-.434-2.266a4.575 4.575 0 00-1.076-1.653 4.562 4.562 0 00-1.653-1.076c-.594-.23-1.273-.388-2.267-.434-.995-.045-1.312-.056-3.847-.056zm0 1.682c2.492 0 2.788.009 3.772.054.91.042 1.404.193 1.733.322.436.169.747.371 1.073.697s.529.638.698 1.073c.128.329.28.823.322 1.733.045.984.054 1.28.054 3.772s-.009 2.788-.054 3.772c-.042.91-.193 1.404-.322 1.733a2.886 2.886 0 01-.698 1.073c-.301.31-.668.548-1.073.698-.329.128-.823.28-1.733.322-.984.045-1.279.054-3.772.054s-2.788-.009-3.772-.054c-.91-.042-1.404-.193-1.733-.322a2.886 2.886 0 01-1.073-.698 2.898 2.898 0 01-.698-1.073c-.128-.329-.28-.823-.322-1.733-.045-.984-.054-1.28-.054-3.772s.009-2.788.054-3.772c.042-.91.193-1.404.322-1.733.169-.436.372-.747.698-1.073.301-.31.668-.548 1.073-.697.329-.128.823-.28 1.733-.322.984-.045 1.28-.054 3.772-.054z"/><path d="M15.99 19.007c-.397 0-.79-.079-1.157-.234a3.036 3.036 0 01-1.636-1.662 3.11 3.11 0 01.655-3.346c.281-.285.614-.511.981-.666s.76-.234 1.157-.234c.802 0 1.57.324 2.137.9s.885 1.357.885 2.172-.318 1.596-.885 2.172a3 3 0 01-2.137.9zm0-7.803c-1.235 0-2.419.498-3.292 1.386s-1.364 2.091-1.364 3.345c0 1.255.491 2.458 1.364 3.346s2.057 1.386 3.292 1.386c1.235 0 2.419-.498 3.292-1.386s1.364-2.091 1.364-3.346-.49-2.458-1.364-3.345-2.058-1.386-3.292-1.386zm6.01-.086c0 .297-.116.581-.322.791a1.09 1.09 0 01-1.556 0 1.13 1.13 0 010-1.582 1.09 1.09 0 011.556 0c.206.21.322.494.322.791z"/></symbol><symbol id="icon-location" viewBox="0 0 32 32"><path d="M16 15.667c.644 0 1.194-.228 1.65-.683s.683-1.006.683-1.65c0-.644-.228-1.194-.683-1.65s-1.006-.683-1.65-.683c-.644 0-1.194.228-1.65.683s-.683 1.006-.683 1.65c0 .644.228 1.194.683 1.65s1.006.683 1.65.683zM16 26.7c2.956-2.689 5.139-5.128 6.55-7.317s2.117-4.117 2.117-5.783c0-2.622-.839-4.767-2.517-6.433s-3.728-2.5-6.15-2.5-4.472.833-6.15 2.5-2.517 3.811-2.517 6.433c0 1.667.722 3.594 2.167 5.783s3.611 4.628 6.5 7.317zm0 2.633c-3.578-3.044-6.25-5.872-8.017-8.483s-2.65-5.028-2.65-7.25c0-3.333 1.072-5.989 3.217-7.967S13.178 2.666 16 2.666s5.306.989 7.45 2.967 3.217 4.633 3.217 7.967c0 2.222-.883 4.639-2.65 7.25S19.578 26.289 16 29.333z"/></symbol><symbol id="icon-logo" viewBox="0 0 25 32"><path d="M19.648 17.652V8.11l-7.314-5.726L5.02 8.11v9.542h14.628zm2.089 1.037a.975.975 0 01-.08.397 1.028 1.028 0 01-.564.561 1.052 1.052 0 01-.4.079H3.975a1.008 1.008 0 01-.4-.079 1.065 1.065 0 01-.338-.224.985.985 0 01-.226-.337 1.02 1.02 0 01-.079-.397V7.607a1.029 1.029 0 01.397-.814L11.688.249a1.04 1.04 0 01.648-.223 1.055 1.055 0 01.648.223l8.359 6.543a1.03 1.03 0 01.397.815v11.082zM7.11 10.393h2.089a3.114 3.114 0 00.37 1.467 3.317 3.317 0 00.548.733 2.95 2.95 0 00.475.386 3.344 3.344 0 00.831.391 3.016 3.016 0 00.603.119 3.155 3.155 0 002.915-1.367 3.035 3.035 0 00.393-.826 2.982 2.982 0 00.135-.903h2.09c0 .17-.009.339-.025.508s-.042.337-.076.503a5.025 5.025 0 01-.297.973 4.944 4.944 0 01-.788 1.305 5.336 5.336 0 01-.724.719 5.071 5.071 0 01-.852.565 5.208 5.208 0 01-1.951.587 5.466 5.466 0 01-1.024 0 5.12 5.12 0 01-1.005-.199 5.137 5.137 0 01-1.798-.953 5.315 5.315 0 01-1.029-1.128 5.49 5.49 0 01-.264-.436 5.473 5.473 0 01-.392-.939 5.354 5.354 0 01-.2-.997 5.382 5.382 0 01-.025-.508z"/><path fill="var(--color3, #d854a5)" d="M8.37 6.566h2.758v2.746H8.37V6.566z"/><path d="M1.736 24.88c-.35 0-.656-.074-.918-.224a1.512 1.512 0 01-.605-.646 2.175 2.175 0 01-.212-.987c0-.375.071-.701.212-.98.141-.279.343-.495.605-.646s.568-.226.918-.226c.227 0 .44.034.638.101.2.067.377.163.532.289a.294.294 0 01.093.111.34.34 0 01.025.136.295.295 0 01-.063.191.184.184 0 01-.149.075.387.387 0 01-.212-.07 1.446 1.446 0 00-.411-.229 1.3 1.3 0 00-.421-.065c-.358 0-.629.112-.812.334s-.275.55-.275.98c0 .436.091.765.275.987.183.221.454.332.812.332.146 0 .283-.021.409-.065.126-.045.267-.121.424-.226a.776.776 0 01.103-.053.308.308 0 01.108-.02c.059 0 .108.026.149.078.042.05.063.113.063.188a.37.37 0 01-.025.138.273.273 0 01-.093.108 1.646 1.646 0 01-.532.291 2.04 2.04 0 01-.638.098zm3.46 0c-.353 0-.66-.074-.918-.224a1.52 1.52 0 01-.6-.646 2.175 2.175 0 01-.212-.987c0-.375.069-.701.209-.98.139-.279.339-.495.6-.646s.568-.226.921-.226c.354 0 .662.075.921.226s.457.366.595.646c.139.278.209.605.209.98 0 .377-.071.706-.212.987-.14.28-.339.495-.598.646a1.805 1.805 0 01-.916.224zm0-.528c.333 0 .593-.114.78-.344.188-.229.283-.558.283-.985s-.095-.754-.283-.982c-.187-.227-.447-.342-.78-.342-.337 0-.598.114-.785.342s-.28.555-.28.982c0 .427.093.756.28.985s.448.344.785.344zm5.593-3.16c.097 0 .175.03.232.09.059.06.088.14.088.239v3.037a.307.307 0 01-.083.226c-.054.053-.126.08-.214.08s-.16-.027-.212-.08a.317.317 0 01-.078-.226v-2.115l-.875 1.653a.493.493 0 01-.134.168.283.283 0 01-.169.053.293.293 0 01-.172-.05.506.506 0 01-.134-.171l-.88-1.625v2.088a.313.313 0 01-.081.224c-.052.055-.123.083-.212.083s-.16-.027-.212-.08a.317.317 0 01-.078-.226v-3.037c0-.099.028-.178.086-.239s.134-.09.23-.09c.132 0 .237.074.313.221l1.145 2.171 1.138-2.171c.076-.147.177-.221.303-.221zm1.412 3.673c-.1 0-.179-.03-.24-.09a.328.328 0 01-.091-.241v-3.002c0-.099.028-.176.086-.231s.135-.083.235-.083H14c.208 0 .313.09.313.269 0 .175-.105.261-.313.261h-1.473v.985h1.37c.208 0 .313.089.313.266 0 .175-.105.261-.313.261h-1.37v1.274c0 .099-.03.18-.088.241a.317.317 0 01-.237.09zm4.176.015c-.353 0-.66-.074-.918-.224a1.52 1.52 0 01-.6-.646 2.175 2.175 0 01-.212-.987c0-.375.069-.701.209-.98.139-.279.339-.495.6-.646s.568-.226.921-.226c.354 0 .662.075.921.226s.457.366.595.646c.139.278.209.605.209.98 0 .377-.071.706-.212.987-.14.28-.339.495-.598.646a1.805 1.805 0 01-.916.224zm0-.528c.333 0 .593-.114.78-.344.188-.229.283-.558.283-.985s-.095-.754-.283-.982c-.187-.227-.447-.342-.78-.342-.337 0-.598.114-.785.342s-.28.555-.28.982c0 .427.093.756.28.985s.448.344.785.344zm5.275.068c.04.06.061.12.061.178a.242.242 0 01-.096.196.358.358 0 01-.381.037.33.33 0 01-.126-.116l-.684-1.035a.663.663 0 00-.219-.231.595.595 0 00-.3-.068h-.505v1.151a.34.34 0 01-.088.244c-.059.058-.138.088-.237.088s-.179-.029-.24-.088a.326.326 0 01-.091-.244V21.53c0-.099.028-.176.086-.231s.135-.083.235-.083h1.287c.412 0 .725.092.941.276.215.183.323.447.323.791 0 .281-.08.512-.24.691s-.386.295-.679.347a.655.655 0 01.262.128c.076.06.149.146.222.256l.469.713zm-1.39-1.545c.25 0 .434-.047.55-.141s.174-.239.174-.435c0-.197-.058-.342-.174-.432s-.3-.136-.55-.136h-.868v1.143h.868zm3.228 1.985a.336.336 0 01-.245-.088.319.319 0 01-.091-.239v-2.771h-.936c-.207 0-.31-.09-.31-.271 0-.182.103-.274.31-.274h2.538c.207 0 .31.092.31.274 0 .181-.103.271-.31.271h-.936v2.771c0 .099-.03.178-.091.239a.33.33 0 01-.24.088zM6.334 30a.26.26 0 01.189.07.233.233 0 01.073.181v1.103c0 .158-.021.269-.063.334-.04.065-.125.118-.252.158a2.43 2.43 0 01-.479.113 3.72 3.72 0 01-.525.04c-.373 0-.698-.073-.974-.219a1.506 1.506 0 01-.631-.638c-.146-.279-.219-.613-.219-1 0-.378.073-.707.219-.985.146-.279.353-.494.621-.643s.583-.224.949-.224c.484 0 .881.13 1.191.389.04.039.069.077.088.116.02.037.03.08.03.131a.295.295 0 01-.063.191.184.184 0 01-.149.075c-.039 0-.073-.006-.103-.018s-.067-.031-.108-.058a1.622 1.622 0 00-.424-.224 1.4 1.4 0 00-.441-.065c-.375 0-.658.111-.848.332s-.285.549-.285.982c0 .889.391 1.334 1.173 1.334.233 0 .467-.033.701-.098v-.907h-.583a.287.287 0 01-.194-.06c-.045-.041-.068-.1-.068-.176s.023-.133.068-.173a.286.286 0 01.194-.063h.913zm3.887 1.54c.04.06.061.12.061.178a.242.242 0 01-.096.196.358.358 0 01-.381.037.33.33 0 01-.126-.116L8.995 30.8a.672.672 0 00-.219-.231.595.595 0 00-.3-.068h-.505v1.151a.34.34 0 01-.088.244c-.059.058-.138.088-.237.088s-.179-.029-.24-.088a.326.326 0 01-.091-.244V28.65c0-.099.028-.176.086-.231s.135-.083.235-.083h1.287c.412 0 .725.092.941.276.215.183.323.447.323.791 0 .281-.08.512-.24.691s-.386.295-.679.347a.655.655 0 01.262.128c.076.06.149.146.222.256l.469.713zm-1.39-1.544c.25 0 .434-.047.55-.141s.174-.239.174-.435c0-.197-.058-.342-.174-.432s-.3-.136-.55-.136h-.868v1.143h.868zM12.486 32c-.353 0-.66-.074-.918-.224a1.52 1.52 0 01-.6-.646 2.175 2.175 0 01-.212-.987c0-.375.069-.701.209-.98.139-.279.339-.495.6-.646s.568-.226.921-.226c.354 0 .662.075.921.226s.457.366.595.646c.139.278.209.605.209.98 0 .377-.071.706-.212.987-.14.28-.339.495-.598.646a1.805 1.805 0 01-.916.224zm0-.527c.333 0 .593-.114.779-.344.188-.229.283-.558.283-.985s-.095-.754-.283-.982c-.187-.227-.447-.342-.779-.342-.337 0-.598.114-.785.342s-.28.555-.28.982.093.756.28.985c.187.23.448.344.785.344zm3.868.527c-.498 0-.875-.128-1.133-.384s-.386-.631-.386-1.123v-1.851a.33.33 0 01.086-.239.321.321 0 01.24-.09c.099 0 .177.03.235.09.059.06.088.14.088.239v1.887c0 .312.074.547.222.706s.364.239.648.239c.283 0 .497-.08.643-.241.148-.161.222-.395.222-.703v-1.887c0-.099.029-.178.088-.239s.137-.09.237-.09c.099 0 .178.03.237.09s.088.14.088.239v1.851c0 .489-.13.863-.388 1.12-.257.258-.633.387-1.128.387zm2.58-.015a.329.329 0 01-.24-.088.326.326 0 01-.091-.244v-3.002c0-.099.028-.176.086-.231s.135-.083.235-.083h1.266c.389 0 .69.097.906.291.217.193.325.463.325.811 0 .35-.108.622-.325.816-.216.195-.517.291-.906.291h-.921v1.105c0 .102-.03.183-.091.244a.342.342 0 01-.245.088zm1.173-1.944c.457 0 .686-.198.686-.595 0-.395-.229-.593-.686-.593h-.838v1.188h.838z"/></symbol><symbol id="icon-minus" viewBox="0 0 32 32"><path d="M32 16c0 8.837-7.163 16-16 16S0 24.837 0 16 7.163 0 16 0s16 7.163 16 16z"/><path fill="#fff" d="M24.049 17.147H7.957v-2.299h16.092v2.299z"/></symbol><symbol id="icon-plus" viewBox="0 0 32 32"><path d="M32 16c0 8.837-7.163 16-16 16S0 24.837 0 16 7.163 0 16 0s16 7.163 16 16z"/><path fill="#fff" d="M24.049 17.147h-6.897v6.897h-2.299v-6.897H7.956v-2.299h6.897V7.951h2.299v6.897h6.897v2.299z"/></symbol><symbol id="icon-whatsApp" viewBox="0 0 32 32"><path d="M16.528 24.902h-.004a9.514 9.514 0 01-4.547-1.158l-5.044 1.323 1.35-4.93a9.491 9.491 0 01-1.27-4.756c.002-5.246 4.27-9.514 9.514-9.514 2.545.001 4.934.992 6.73 2.79s2.785 4.189 2.784 6.731c-.002 5.244-4.268 9.512-9.514 9.514zm-4.317-2.881l.289.171a7.895 7.895 0 004.025 1.102h.003c4.358 0 7.906-3.547 7.908-7.908.001-2.113-.821-4.1-2.314-5.594s-3.478-2.318-5.591-2.319c-4.362 0-7.909 3.547-7.911 7.907a7.89 7.89 0 001.209 4.208l.188.299-.799 2.918 2.993-.785zm8.784-4.585c.166.08.278.134.326.214.059.099.059.575-.139 1.13s-1.148 1.062-1.605 1.13c-.41.061-.928.087-1.497-.094a13.78 13.78 0 01-1.355-.501c-2.229-.962-3.735-3.122-4.019-3.531a1.331 1.331 0 00-.042-.059l-.002-.003c-.126-.168-.969-1.293-.969-2.457 0-1.095.538-1.669.785-1.933l.047-.05a.874.874 0 01.634-.298 10.908 10.908 0 01.509.009c.139-.001.311-.002.482.407.066.157.162.391.263.637.205.498.431 1.048.47 1.128.059.119.099.258.02.416a2.055 2.055 0 00-.033.068c-.06.121-.103.211-.204.329-.04.046-.081.096-.122.146-.082.1-.164.199-.235.27-.119.119-.243.247-.104.485s.616 1.016 1.322 1.647c.76.678 1.42.964 1.755 1.109.065.028.118.051.157.071.238.119.376.099.515-.06s.594-.694.753-.932c.158-.238.317-.198.535-.119s1.387.654 1.624.773l.13.064z"/></symbol><symbol id="icon-menu" viewBox="0 0 37 32"><path stroke-linecap="round" stroke-width="4.571" d="M2.286 2.286h32M2.286 16h32m-32 13.714h32"/></symbol><symbol id="icon-messenger" viewBox="0 0 40 40"><path d="M12.381 27.701v4.27l3.992-2.27c1.112.32 2.295.494 3.52.494 6.57 0 11.895-4.97 11.895-11.098C31.788 12.968 26.463 8 19.894 8S8 12.968 8 19.097c0 3.47 1.707 6.57 4.381 8.604z"/><path d="M18.623 16.058l-6.414 6.791 5.838-3.203 3.05 3.203 6.378-6.791-5.773 3.146-3.079-3.146z" fill="#EBE7F3"/></symbol><symbol id="icon-telegram" viewBox="0 0 48 48"><path d="M10.787 23.47c6.98-3.104 11.634-5.15 13.962-6.14 6.649-2.823 8.03-3.313 8.931-3.33.198-.003.64.047.928.284.242.201.309.472.34.662.032.19.072.624.04.963-.36 3.865-1.919 13.245-2.712 17.574-.336 1.832-.996 2.446-1.636 2.506-1.39.13-2.446-.938-3.793-1.84-2.107-1.41-3.297-2.288-5.343-3.664-2.363-1.59-.831-2.464.516-3.893.353-.373 6.478-6.063 6.597-6.578.015-.065.028-.306-.111-.433-.14-.127-.347-.083-.496-.049-.212.05-3.578 2.32-10.099 6.815-.955.67-1.82.996-2.596.98-.855-.02-2.5-.494-3.721-.9-1.5-.497-2.691-.76-2.588-1.605.054-.44.648-.89 1.781-1.351z"/></symbol><symbol id="icon-tel" viewBox="0 0 48 48"><path d="M33.275 34.5c-2.508 0-4.953-.56-7.335-1.678a22.216 22.216 0 01-6.329-4.433 22.216 22.216 0 01-4.433-6.33c-1.119-2.38-1.678-4.826-1.678-7.334 0-.35.117-.642.35-.875.233-.233.525-.35.875-.35h4.725c.272 0 .515.088.73.262.213.175.34.4.378.671l.759 4.084c.039.272.034.52-.014.743a1.198 1.198 0 01-.336.598l-2.8 2.859a19.373 19.373 0 003.062 3.937 21.342 21.342 0 004.054 3.18l2.742-2.742c.175-.175.404-.307.686-.395.282-.087.558-.11.83-.072l4.026.817c.272.058.495.19.67.393.175.204.263.443.263.715v4.725c0 .35-.117.642-.35.875-.233.233-.525.35-.875.35z"/></symbol><symbol id="icon-close" viewBox="0 0 28 28" fill="none"><path d="M2.8 2.8l22.4 22.4m-22.4 0L25.2 2.8" stroke-width="2"/></symbol><symbol id="icon-prev-btn" viewBox="0 0 40 40"><path d="M23.705 15.41L22.295 14l-6 6 6 6 1.41-1.41-4.58-4.59 4.58-4.59z"/></symbol><symbol id="icon-next-btn" viewBox="0 0 40 40"><path d="M17.705 14l-1.41 1.41 4.58 4.59-4.58 4.59 1.41 1.41 6-6-6-6z"/></symbol><symbol id="icon-winter" viewBox="0 0 32 32"><path d="M14.507 4.066v2.04l-2.614-2.612-1.413 1.413 4.027 4.028-.028 4.451-1.867-1.075c-1.027-.591-1.875-1.081-1.886-1.09s-.35-1.247-.755-2.752c-.522-1.941-.756-2.735-.807-2.731-.129.01-1.778.46-1.818.496-.021.019.165.79.414 1.713s.446 1.708.439 1.744c-.008.038-.744-.357-1.767-.95-1.114-.645-1.772-.997-1.805-.965-.028.028-.37.6-.759 1.27-.523.901-.692 1.235-.649 1.281.033.034.821.5 1.753 1.035s1.687.98 1.68.988c-.008.008-.794.223-1.747.478s-1.742.472-1.754.483c-.017.016.15.68.432 1.715.027.098.082.173.127.173.044 0 1.282-.323 2.751-.718l2.671-.718 1.9 1.094c1.045.602 1.919 1.114 1.943 1.137s-.83.548-1.897 1.165l-1.94 1.123-2.658-.714a459.302 459.302 0 01-2.747-.743c-.076-.024-.129.12-.347.933-.142.529-.248.969-.236.979s.766.215 1.675.455c.909.241 1.697.455 1.751.477.074.029-.296.265-1.52.968-.889.511-1.683.968-1.763 1.016l-.145.087.722 1.249c.397.687.74 1.268.762 1.29s.83-.416 1.796-.974c.966-.558 1.764-.993 1.772-.967s-.189.811-.439 1.743c-.25.933-.444 1.707-.431 1.72s.439.137.946.276c.811.221.927.241.963.166.022-.047.361-1.279.751-2.739s.721-2.662.733-2.673a289.25 289.25 0 013.76-2.167c.012 0 .022.99.022 2.2v2.2l-4.026 4.027 1.413 1.413 2.614-2.612v4.133h2.985l.028-4.155 2.622 2.547 1.376-1.38-4.026-4.027v-2.2c0-1.21.01-2.2.023-2.2s.883.496 1.933 1.103l1.922 1.109c.006.004.337 1.217.734 2.697s.732 2.717.744 2.75c.014.04.338-.026.964-.196.518-.14.95-.263.959-.273s-.194-.797-.451-1.751c-.258-.953-.46-1.742-.451-1.753s.779.421 1.71.96c.931.539 1.72.986 1.752.994.049.013 1.397-2.244 1.491-2.495.022-.06-.417-.337-1.73-1.093-.968-.557-1.76-1.026-1.76-1.043s.75-.23 1.667-.475a85.837 85.837 0 001.75-.477c.072-.028.051-.156-.161-.949-.134-.504-.26-.932-.278-.951s-1.25.292-2.737.69c-1.487.398-2.721.724-2.743.724s-.842-.463-1.822-1.03c-.98-.567-1.824-1.053-1.875-1.082-.075-.042.265-.259 1.772-1.13 1.026-.593 1.899-1.078 1.94-1.078s1.282.324 2.758.719 2.693.708 2.707.694c.014-.014.137-.445.275-.958l.25-.933-.271-.077c-.149-.043-.919-.25-1.712-.46s-1.459-.4-1.482-.422c-.023-.021.75-.493 1.718-1.048s1.761-1.025 1.762-1.044c.004-.066-1.451-2.551-1.494-2.551-.023 0-.814.446-1.757.991s-1.723.983-1.732.973.184-.762.429-1.671.452-1.7.46-1.757c.013-.091-.094-.133-.918-.354-.513-.138-.949-.235-.968-.216s-.352 1.222-.739 2.674-.732 2.683-.765 2.736-.913.587-1.954 1.187l-1.893 1.091-.014-2.209-.014-2.209 4.058-4.031-1.416-1.419-1.281 1.28c-.704.704-1.299 1.28-1.321 1.28s-.04-.924-.04-2.053V2.021h-2.987v2.04z"/></symbol><symbol id="icon-autumn" viewBox="0 0 32 32"><path d="M15.2 3.448c-1.161 2.213-1.642 3.072-1.798 3.211-.106.094-.182.119-.309.098-.152-.025-1.211-.581-2.185-1.148-.205-.119-.38-.209-.389-.199s.129.662.309 1.45c.819 3.601 1.173 5.339 1.171 5.753-.002.456-.298.675-.718.53-.247-.085-.122.045-1.855-1.926l-1.415-1.61-.445.964c-.245.53-.511 1.035-.592 1.122-.174.186.036.211-1.998-.231-.857-.186-1.573-.324-1.59-.306-.03.03.798 2.883 1.04 3.584.152.44.144.698-.027.856-.075.069-.376.228-.669.354-.42.179-.518.241-.464.291.038.035 1.257 1.102 2.709 2.371 2.986 2.61 3.283 2.887 3.364 3.132.068.206.047.324-.193 1.108-.099.323-.239.809-.311 1.08l-.131.493.116-.027c1.341-.313 5.673-1.2 5.862-1.2.353 0 .601.114.712.328.108.209.091.926-.102 4.409-.064 1.154-.106 2.108-.094 2.12s.375.023.805.023c.43 0 .792-.01.805-.023s-.03-.966-.094-2.12a206.344 206.344 0 01-.155-3.194c-.035-1.004-.03-1.109.057-1.243.135-.206.349-.301.681-.301.164 0 1.508.261 3.135.61 1.567.335 2.854.604 2.861.597.018-.018-.281-1.088-.467-1.674-.095-.298-.157-.61-.157-.787 0-.263.02-.315.2-.514.11-.122 1.46-1.326 3-2.675s2.83-2.48 2.866-2.513c.05-.045-.066-.116-.48-.296-.699-.303-.804-.403-.772-.738.013-.138.281-1.099.595-2.136s.558-1.899.541-1.915c-.017-.017-.732.122-1.59.307s-1.621.347-1.694.359c-.25.041-.387-.148-.877-1.206l-.468-1.011-.433.49c.898-1.043.402-.482-.095.08l-1.427 1.646c-.598.679-1.15 1.26-1.227 1.289-.299.117-.492.091-.671-.088-.142-.142-.146-.162-.119-.573.031-.473.287-1.723 1.003-4.9.264-1.17.472-2.135.463-2.144s-.184.081-.389.2c-.974.566-2.034 1.123-2.185 1.148-.127.021-.203-.004-.308-.098-.174-.157-.626-.958-1.719-3.049-.469-.898-.865-1.633-.88-1.634s-.375.662-.8 1.472z"/></symbol><symbol id="icon-spring" viewBox="0 0 32 32"><path d="M15.387 3.047c-2.223.278-4.012 2.215-4.045 4.379-.004.286-.016.52-.026.52s-.166-.081-.347-.181c-.776-.428-1.539-.594-2.555-.554-.57.022-.724.05-1.201.214-1.862.639-3.083 2.215-3.195 4.122a4.596 4.596 0 002.261 4.231c.183.108.333.21.333.227s-.118.096-.264.176c-1.041.567-1.845 1.607-2.2 2.844-.171.597-.171 1.727 0 2.324.649 2.265 2.71 3.677 5.025 3.443a5.132 5.132 0 001.795-.555c.181-.101.337-.183.347-.184s.01.141 0 .314c-.04.716.275 1.771.747 2.498.648.998 1.689 1.724 2.905 2.025.496.123 1.568.123 2.064 0 1.216-.301 2.257-1.027 2.905-2.025.472-.727.788-1.782.747-2.498-.01-.173-.014-.314-.009-.314s.185.094.4.209a4.777 4.777 0 003.623.347 4.492 4.492 0 001.994-1.226c1.711-1.753 1.731-4.6.046-6.345-.332-.344-.751-.674-1.088-.858-.283-.154-.317-.203-.176-.256.224-.086.857-.556 1.168-.867.594-.594.965-1.233 1.208-2.082.171-.597.171-1.727 0-2.324-.501-1.748-1.844-3.006-3.611-3.382-.271-.058-.572-.072-1.094-.053-.848.031-1.287.14-1.99.494-.259.13-.475.236-.48.236s-.013-.234-.018-.52c-.034-2.202-1.826-4.108-4.124-4.385-.507-.061-.618-.061-1.148.006zm1.81 8.47c2.224.581 3.725 2.758 3.449 5.003-.232 1.884-1.498 3.374-3.351 3.943-.424.13-.549.144-1.296.144s-.872-.014-1.296-.144c-.892-.274-1.549-.682-2.158-1.344-2.228-2.418-1.283-6.298 1.818-7.465.83-.312 1.954-.367 2.833-.138z"/></symbol><symbol id="icon-summer" viewBox="0 0 32 32"><path d="M15.547 2.102c-.206.092-.374.275-.478.524-.068.164-.082.477-.082 1.839 0 .965.023 1.723.055 1.84.12.431.472.682.958.682s.838-.251.958-.682c.032-.117.054-.875.054-1.852-.001-1.493-.011-1.674-.099-1.866-.114-.247-.29-.423-.503-.503-.206-.078-.669-.068-.863.018zM6.356 5.928a.996.996 0 00-.528.753l-.001.005c-.051.455.024.562 1.234 1.785 1.084 1.096 1.381 1.343 1.701 1.418.548.127 1.254-.579 1.127-1.127a1.683 1.683 0 00-.162-.37l.004.008c-.182-.316-2.302-2.403-2.543-2.504a.965.965 0 00-.837.035l.005-.003zm18.444-.03c-.231.1-2.359 2.204-2.531 2.502-.168.292-.202.473-.135.723.144.535.719.88 1.235.742.198-.054.399-.23 1.419-1.242 1.307-1.298 1.429-1.466 1.386-1.905a.988.988 0 00-1.38-.817l.006-.002zm-9.758 2.166c-1.777.198-3.503 1.07-4.809 2.431-1.036 1.079-1.701 2.318-2.052 3.825-.137.587-.149.726-.148 1.68.001.864.021 1.128.117 1.561.36 1.631 1.054 2.904 2.22 4.069 1.15 1.15 2.353 1.817 3.95 2.189.585.136.729.149 1.68.149s1.095-.013 1.68-.149c1.597-.372 2.8-1.039 3.95-2.189 1.177-1.176 1.862-2.438 2.217-4.083.175-.809.175-2.285 0-3.094-.335-1.551-1.018-2.852-2.078-3.957-1.777-1.851-4.169-2.716-6.727-2.432zM2.727 15.04c-.53.125-.824.664-.675 1.238a.892.892 0 00.529.633l.006.002c.192.088.373.098 1.866.099.993 0 1.734-.022 1.855-.055.266-.074.55-.33.628-.565.089-.271.041-.788-.089-.963a.967.967 0 00-.609-.392l-.006-.001c-.293-.056-3.263-.053-3.505.004zm23.016-.003a.981.981 0 00-.588.389l-.002.003c-.13.175-.178.692-.089.963.078.235.362.491.628.565.121.033.862.055 1.855.055 1.493-.001 1.674-.011 1.866-.099a.9.9 0 00.537-.638l.001-.006c.124-.477-.068-.938-.484-1.167-.139-.077-.388-.09-1.84-.098-.924-.004-1.772.01-1.884.033zM8.37 22.287c-.361.234-2.376 2.29-2.474 2.525a.987.987 0 00.785 1.361h.005c.455.051.562-.024 1.785-1.234 1.368-1.353 1.524-1.584 1.395-2.062-.065-.24-.316-.552-.538-.666-.259-.134-.686-.1-.958.076zm14.268-.054c-.362.22-.602.679-.527 1.005.075.32.322.617 1.418 1.701 1.223 1.21 1.33 1.285 1.785 1.234a.99.99 0 00.787-1.367l.002.006c-.098-.235-2.113-2.291-2.474-2.525-.292-.189-.732-.213-.992-.054zm-7.091 2.881c-.12.055-.223.124-.313.209l.001-.001c-.222.25-.244.441-.245 2.198-.001 1.522.008 1.7.097 1.893.211.457.677.669 1.182.538a.9.9 0 00.642-.532l.002-.006c.089-.193.098-.371.097-1.893-.001-1.757-.023-1.948-.245-2.198-.149-.167-.496-.306-.765-.306-.165.006-.32.041-.461.101l.008-.003z"/></symbol><symbol id="icon-copy" viewBox="0 0 512 512"><path d="M308.51 450H80.59a15 15 0 01-15-15V143.93a15 15 0 0115-15h227.92a15 15 0 0115 15V435a15 15 0 01-15 15zM95.59 420h197.92V158.93H95.59z"/><path d="M389.44 369.07h-80.93a15 15 0 010-30h65.93V78H176.52v65.92a15 15 0 01-30 0V63a15 15 0 0115-15h227.92a15 15 0 0115 15v291.07a15 15 0 01-15 15z"/></symbol></defs></svg>